<svg xmlns="http://www.w3.org/2000/svg" viewBox="14.0627 14.844 72.6558 72.6566" width="72.6558px" height="72.6566px">
  <path d="m68.969 36.262c0.68359-0.52734 1.6641-0.39844 2.1914 0.28516s0.39844 1.6641-0.28516 2.1914l-18.273 14.086c-0.83984 0.64844-2.0117 0.64844-2.8555 0.003906l-5.2188-3.9883-13.508 10.219c-0.6875 0.51953-1.668 0.38672-2.1875-0.30469-0.51953-0.6875-0.38672-1.668 0.30469-2.1875l13.977-10.578 0.16406-0.11328c0.76562-0.48438 1.75-0.48438 2.5156 0.007812l0.16016 0.11328 5.2148 3.9883z" transform="matrix(1, 0, 0, 1, 1.7763568394002505e-15, 3.552713678800501e-15)"></path>
  <path d="m82.031 14.844c2.5898 0 4.6875 2.0977 4.6875 4.6875v5.4688c0 2.3242-1.6914 4.25-3.9062 4.6211v35.223c0 2.5898-2.0977 4.6875-4.6875 4.6875h-4.0508l4.082 11.742c1.0586 3.0469-1.2031 6.2266-4.4258 6.2266h-3.5391c-1.9961 0-3.7734-1.2617-4.4297-3.1484l-5.1523-14.82h-20.48l-5.8672 14.988c-0.70312 1.7969-2.4336 2.9805-4.3633 2.9805h-3.4453c-3.3008 0-5.5664-3.3203-4.3633-6.3945l4.5273-11.574h-3.9609c-2.5898 0-4.6875-2.0977-4.6875-4.6875v-35.223c-2.2148-0.375-3.9062-2.2969-3.9062-4.6211v-5.4688c0-2.5898 2.0977-4.6875 4.6875-4.6875zm-57.031 67.398c-0.40234 1.0273 0.35156 2.1328 1.4531 2.1328h3.4453c0.64453 0 1.2227-0.39453 1.457-0.99219l5.418-13.852h-6.8008zm43.715 1.082c0.21875 0.62891 0.80859 1.0508 1.4766 1.0508h3.5391c1.0742 0 1.8281-1.0625 1.4766-2.0742l-4.4414-12.77h-6.8477zm-47.621-53.637v35.156c0 0.86328 0.69922 1.5625 1.5625 1.5625h55.469c0.86328 0 1.5625-0.69922 1.5625-1.5625v-35.156zm-2.3438-11.719c-0.86328 0-1.5625 0.69922-1.5625 1.5625v5.4688c0 0.86328 0.69922 1.5625 1.5625 1.5625h63.281c0.86328 0 1.5625-0.69922 1.5625-1.5625v-5.4688c0-0.86328-0.69922-1.5625-1.5625-1.5625z" fill-rule="evenodd" transform="matrix(1, 0, 0, 1, 1.7763568394002505e-15, 3.552713678800501e-15)"></path>
</svg>
